<svg width="2000px" height="1578px"
 viewBox="0.00 0.00 493.08 388.92" xmlns="http://www.w3.org/2000/svg" xmlns:xlink="http://www.w3.org/1999/xlink">
<g id="graph0" class="graph" transform="scale(1.0 1.0) rotate(0) translate(4 384.92)">
<title>ContextMapGraph</title>
<polygon fill="white" stroke="none" points="-4,4 -4,-384.92 489.079,-384.92 489.079,4 -4,4"/>
<!-- CargoBookingContext -->
<g id="node1" class="node"><title>CargoBookingContext</title>
<polygon fill="none" stroke="black" stroke-width="2" points="163.985,-234.611 155.005,-234.92 146.045,-235.107 137.141,-235.17 128.329,-235.109 119.644,-234.924 111.119,-234.614 102.787,-234.179 94.6789,-233.62 86.8247,-232.939 79.2519,-232.136 71.9862,-231.215 65.0513,-230.176 58.4688,-229.022 52.2581,-227.758 46.4362,-226.385 41.0178,-224.909 36.015,-223.332 31.4379,-221.661 27.2939,-219.899 23.5883,-218.052 20.3238,-216.126 17.5013,-214.125 15.1192,-212.057 13.174,-209.927 11.6605,-207.743 10.5714,-205.51 9.89795,-203.235 9.62997,-200.926 9.75587,-198.59 10.2629,-196.233 11.1375,-193.864 12.3651,-191.488 13.9306,-189.114 15.8183,-186.749 18.0125,-184.399 20.4971,-182.072 23.2562,-179.775 26.2738,-177.515 29.5344,-175.298 33.023,-173.13 36.725,-171.019 40.6263,-168.969 44.7137,-166.987 48.9747,-165.079 53.3977,-163.248 57.9718,-161.502 62.687,-159.843 67.5343,-158.277 72.5053,-156.807 77.5927,-155.437 82.7897,-154.17 88.0904,-153.009 93.4894,-151.958 98.982,-151.017 104.564,-150.19 110.231,-149.477 115.979,-148.88 121.805,-148.4 127.705,-148.037 133.676,-147.792 139.712,-147.664 145.81,-147.653 151.965,-147.759 158.172,-147.98 164.423,-148.315 170.711,-148.763 177.03,-149.321 183.369,-149.989 189.719,-150.763 196.068,-151.64 202.403,-152.62 208.713,-153.697 214.981,-154.87 221.191,-156.134 227.328,-157.488 233.372,-158.925 239.304,-160.445 245.105,-162.041 250.754,-163.71 256.228,-165.448 261.506,-167.251 266.565,-169.114 271.381,-171.032 275.932,-173.002 280.195,-175.017 284.146,-177.074 287.762,-179.168 291.023,-181.293 293.906,-183.444 296.391,-185.617 298.46,-187.805 300.094,-190.005 301.278,-192.21 301.996,-194.415 302.236,-196.615 301.988,-198.804 301.242,-200.977 299.993,-203.129 298.237,-205.253 295.972,-207.346 293.2,-209.4 289.924,-211.411 286.152,-213.374 281.89,-215.282 277.153,-217.132 271.953,-218.917 266.308,-220.633 260.237,-222.275 253.762,-223.837 246.905,-225.316 239.695,-226.707 232.158,-228.005 224.325,-229.206 216.226,-230.307 207.896,-231.303 199.367,-232.192 190.675,-232.97 181.857,-233.634 172.948,-234.182 163.985,-234.611"/>
<text text-anchor="middle" x="151.079" y="-187.263" font-family="sans-serif" font-size="16.00">CargoBookingContext</text>
</g>
<!-- VoyagePlanningContext -->
<g id="node2" class="node"><title>VoyagePlanningContext</title>
<polygon fill="none" stroke="black" stroke-width="2" points="146.758,-23.9665 152.162,-21.5869 157.869,-19.2908 163.859,-17.0877 170.109,-14.987 176.596,-12.9972 183.297,-11.1269 190.189,-9.38353 197.249,-7.77439 204.452,-6.30589 211.777,-4.9838 219.2,-3.81316 226.7,-2.79826 234.254,-1.94262 241.84,-1.24893 249.439,-0.7191 257.029,-0.354221 264.592,-0.154563 272.109,-0.119596 279.561,-0.247996 286.932,-0.537664 294.205,-0.985756 301.366,-1.58871 308.398,-2.34227 315.288,-3.24155 322.023,-4.28107 328.591,-5.45479 334.979,-6.75616 341.177,-8.1782 347.174,-9.71356 352.96,-11.3545 358.526,-13.0931 363.863,-14.9212 368.963,-16.8304 373.817,-18.8122 378.419,-20.8584 382.76,-22.9603 386.834,-25.1098 390.634,-27.2984 394.154,-29.5182 397.386,-31.7614 400.325,-34.0204 402.966,-36.2879 405.301,-38.5569 407.325,-40.8209 409.034,-43.0738 410.42,-45.3096 411.48,-47.5229 412.208,-49.7089 412.599,-51.8628 412.65,-53.9806 412.356,-56.0586 411.714,-58.0932 410.72,-60.0816 409.372,-62.0212 407.668,-63.9095 405.606,-65.7448 403.187,-67.5252 400.41,-69.2492 397.276,-70.9157 393.788,-72.5235 389.947,-74.0718 385.76,-75.5596 381.23,-76.9862 376.364,-78.351 371.17,-79.6531 365.657,-80.8919 359.834,-82.0666 353.714,-83.1761 347.31,-84.2197 340.635,-85.1961 333.706,-86.1041 326.538,-86.9423 319.152,-87.7091 311.565,-88.4028 303.8,-89.0215 295.877,-89.563 287.82,-90.0253 279.654,-90.406 271.402,-90.7025 263.092,-90.9124 254.749,-91.033 246.401,-91.0617 238.076,-90.9957 229.801,-90.8324 221.606,-90.5693 213.518,-90.2039 205.567,-89.7339 197.78,-89.1571 190.184,-88.4716 182.809,-87.6759 175.68,-86.7686 168.822,-85.7489 162.263,-84.6161 156.024,-83.3702 150.13,-82.0117 144.601,-80.5413 139.457,-78.9606 134.718,-77.2715 130.399,-75.4766 126.516,-73.5791 123.083,-71.5828 120.111,-69.492 117.608,-67.3118 115.584,-65.0478 114.043,-62.7061 112.988,-60.2936 112.423,-57.8176 112.345,-55.286 112.752,-52.7071 113.641,-50.0897 115.004,-47.4431 116.835,-44.7769 119.121,-42.1009 121.854,-39.4253 125.018,-36.7605 128.599,-34.1169 132.582,-31.5052 136.948,-28.9359 141.68,-26.4196 146.758,-23.9665"/>
<text text-anchor="middle" x="269.079" y="-45.0801" font-family="sans-serif" font-size="16.00">VoyagePlanningContext</text>
</g>
<!-- CargoBookingContext&#45;&#45;VoyagePlanningContext -->
<g id="edge1" class="edge"><title>CargoBookingContext&#45;&#45;VoyagePlanningContext</title>
<path fill="none" stroke="black" stroke-width="2" d="M184.893,-149.892C200.42,-131.446 218.813,-109.595 234.44,-91.0308"/>
<text text-anchor="middle" x="250.079" y="-119.16" font-family="sans-serif" font-size="12.00">Shared Kernel</text>
</g>
<!-- LocationContext -->
<g id="node3" class="node"><title>LocationContext</title>
<polygon fill="none" stroke="black" stroke-width="2" points="323.177,-365.468 317.823,-367.388 312.3,-369.205 306.63,-370.911 300.835,-372.501 294.936,-373.966 288.956,-375.3 282.915,-376.497 276.836,-377.553 270.738,-378.462 264.642,-379.221 258.568,-379.826 252.534,-380.275 246.557,-380.566 240.657,-380.698 234.847,-380.67 229.144,-380.483 223.562,-380.138 218.114,-379.637 212.811,-378.983 207.667,-378.178 202.689,-377.226 197.888,-376.133 193.271,-374.903 188.845,-373.542 184.617,-372.057 180.592,-370.453 176.775,-368.738 173.169,-366.92 169.777,-365.007 166.601,-363.007 163.644,-360.927 160.908,-358.778 158.392,-356.566 156.097,-354.302 154.024,-351.993 152.174,-349.649 150.545,-347.279 149.138,-344.889 147.952,-342.489 146.989,-340.088 146.246,-337.691 145.724,-335.308 145.424,-332.945 145.345,-330.609 145.488,-328.306 145.852,-326.043 146.438,-323.824 147.248,-321.656 148.281,-319.543 149.537,-317.489 151.019,-315.498 152.725,-313.574 154.657,-311.719 156.814,-309.937 159.198,-308.23 161.807,-306.6 164.641,-305.048 167.699,-303.577 170.979,-302.186 174.48,-300.878 178.198,-299.652 182.13,-298.509 186.271,-297.45 190.618,-296.475 195.163,-295.584 199.9,-294.777 204.821,-294.054 209.917,-293.415 215.179,-292.861 220.594,-292.39 226.151,-292.004 231.838,-291.703 237.639,-291.486 243.54,-291.354 249.525,-291.308 255.575,-291.347 261.675,-291.473 267.803,-291.685 273.942,-291.985 280.07,-292.373 286.167,-292.85 292.212,-293.417 298.182,-294.073 304.056,-294.82 309.812,-295.658 315.428,-296.587 320.882,-297.608 326.152,-298.72 331.217,-299.924 336.056,-301.22 340.649,-302.605 344.977,-304.081 349.022,-305.644 352.765,-307.294 356.191,-309.029 359.285,-310.846 362.033,-312.743 364.424,-314.715 366.445,-316.76 368.09,-318.874 369.349,-321.051 370.219,-323.287 370.694,-325.576 370.773,-327.912 370.456,-330.289 369.743,-332.699 368.64,-335.137 367.15,-337.594 365.281,-340.061 363.041,-342.532 360.44,-344.998 357.491,-347.449 354.205,-349.877 350.599,-352.273 346.687,-354.628 342.487,-356.933 338.017,-359.178 333.295,-361.355 328.342,-363.455 323.177,-365.468"/>
<text text-anchor="middle" x="250.079" y="-328.843" font-family="sans-serif" font-size="16.00">LocationContext</text>
</g>
<!-- LocationContext&#45;&#45;CargoBookingContext -->
<g id="edge3" class="edge"><title>LocationContext&#45;&#45;CargoBookingContext</title>
<path fill="none" stroke="black" stroke-width="2" d="M198.208,-294.975C188.823,-286.453 179.874,-276.79 173.079,-266.366 166.907,-256.899 162.417,-245.645 159.169,-234.796"/>
<text text-anchor="middle" x="248.579" y="-256.766" font-family="sans-serif" font-size="12.00"> &#160;&#160;&#160;&#160;&#160;&#160;&#160;&#160;&#160;&#160;&#160;&#160;&#160;&#160;&#160;&#160;&#160;&#160;&#160;&#160;&#160;&#160;&#160;&#160;&#160;&#160;&#160;&#160;&#160;&#160;&#160;&#160;&#160;&#160;&#160;&#160;&#160;&#160;&#160;</text>
<polygon fill="white" stroke="none" points="153.169,-225.796 153.169,-242.796 166.169,-242.796 166.169,-225.796 153.169,-225.796"/>
<text text-anchor="start" x="155.169" y="-231.196" font-family="sans-serif" font-size="12.00">D</text>
<polygon fill="white" stroke="none" points="165.208,-284.975 165.208,-303.975 180.208,-303.975 180.208,-284.975 165.208,-284.975"/>
<polyline fill="none" stroke="black" points="180.208,-284.975 180.208,-303.975 "/>
<text text-anchor="start" x="168.208" y="-291.375" font-family="sans-serif" font-size="12.00">U</text>
<polygon fill="white" stroke="none" points="180.208,-284.975 180.208,-303.975 231.208,-303.975 231.208,-284.975 180.208,-284.975"/>
<polygon fill="none" stroke="black" points="180.208,-284.975 180.208,-303.975 231.208,-303.975 231.208,-284.975 180.208,-284.975"/>
<text text-anchor="start" x="183.208" y="-291.375" font-family="sans-serif" font-size="12.00">OHS, PL</text>
</g>
<!-- LocationContext&#45;&#45;VoyagePlanningContext -->
<g id="edge2" class="edge"><title>LocationContext&#45;&#45;VoyagePlanningContext</title>
<path fill="none" stroke="black" stroke-width="2" d="M303.804,-294.546C312.038,-286.285 319.357,-276.828 324.079,-266.366 350.481,-207.87 319.759,-134.529 294.738,-89.985"/>
<text text-anchor="middle" x="409.579" y="-187.963" font-family="sans-serif" font-size="12.00"> &#160;&#160;&#160;&#160;&#160;&#160;&#160;&#160;&#160;&#160;&#160;&#160;&#160;&#160;&#160;&#160;&#160;&#160;&#160;&#160;&#160;&#160;&#160;&#160;&#160;&#160;&#160;&#160;&#160;&#160;&#160;&#160;&#160;&#160;&#160;&#160;&#160;&#160;&#160;</text>
<polygon fill="white" stroke="none" points="288.738,-80.985 288.738,-97.985 301.738,-97.985 301.738,-80.985 288.738,-80.985"/>
<text text-anchor="start" x="290.738" y="-86.385" font-family="sans-serif" font-size="12.00">D</text>
<polygon fill="white" stroke="none" points="270.804,-284.546 270.804,-303.546 285.804,-303.546 285.804,-284.546 270.804,-284.546"/>
<polyline fill="none" stroke="black" points="285.804,-284.546 285.804,-303.546 "/>
<text text-anchor="start" x="273.804" y="-290.946" font-family="sans-serif" font-size="12.00">U</text>
<polygon fill="white" stroke="none" points="285.804,-284.546 285.804,-303.546 336.804,-303.546 336.804,-284.546 285.804,-284.546"/>
<polygon fill="none" stroke="black" points="285.804,-284.546 285.804,-303.546 336.804,-303.546 336.804,-284.546 285.804,-284.546"/>
<text text-anchor="start" x="288.804" y="-290.946" font-family="sans-serif" font-size="12.00">OHS, PL</text>
</g>
</g>
</svg>
