<?xml version="1.0" encoding="UTF-8" standalone="no"?>
<svg xmlns="http://www.w3.org/2000/svg" xmlns:xlink="http://www.w3.org/1999/xlink" contentScriptType="application/ecmascript" contentStyleType="text/css" height="782px" preserveAspectRatio="none" style="width:1603px;height:782px;" version="1.1" viewBox="0 0 1603 782" width="1603px" zoomAndPan="magnify"><defs><filter height="300%" id="fuzw3gi7ellmz" width="300%" x="-1" y="-1"><feGaussianBlur result="blurOut" stdDeviation="2.0"/><feColorMatrix in="blurOut" result="blurOut2" type="matrix" values="0 0 0 0 0 0 0 0 0 0 0 0 0 0 0 0 0 0 .4 0"/><feOffset dx="4.0" dy="4.0" in="blurOut2" result="blurOut3"/><feBlend in="SourceGraphic" in2="blurOut3" mode="normal"/></filter></defs><g><!--MD5=[31d4e2dfee24c2f407767eff41f5bcd2]
cluster 'BusinessToConsumerAggregate' Aggregate--><rect fill="#FFFFFF" filter="url(#fuzw3gi7ellmz)" height="638" style="stroke: #000000; stroke-width: 1.5;" width="1579" x="7" y="7"/><text fill="#000000" font-family="sans-serif" font-size="14" font-weight="bold" lengthAdjust="spacingAndGlyphs" textLength="354" x="619.5" y="21.9951">'BusinessToConsumerAggregate' Aggregate</text><!--MD5=[ad7a8dc8c0fb2934afd70afd62d218ab]
class CustomerAccount--><rect codeLine="4" fill="#FEFECE" filter="url(#fuzw3gi7ellmz)" height="92.3516" id="CustomerAccount" style="stroke: #A80036; stroke-width: 1.5;" width="233" x="1336.5" y="217.5"/><ellipse cx="1395.75" cy="236.4688" fill="#8FBC8F" rx="11" ry="11" style="stroke: #A80036; stroke-width: 1.0;"/><path d="M1394.5469,237.3438 L1396,237.3438 L1396,237.4531 C1396,237.8594 1396.0313,238.0156 1396.1094,238.1719 C1396.2656,238.4219 1396.5469,238.5781 1396.8438,238.5781 C1397.0938,238.5781 1397.3594,238.4375 1397.5156,238.2188 C1397.6406,238.0625 1397.6719,237.9063 1397.6719,237.4531 L1397.6719,235.5313 C1397.6719,235.375 1397.6719,235.3281 1397.6563,235.1719 C1397.5938,234.7031 1397.2813,234.3906 1396.8281,234.3906 C1396.5781,234.3906 1396.3125,234.5313 1396.1406,234.75 C1396.0313,234.9219 1396,235.0781 1396,235.5313 L1396,235.6563 L1394.5469,235.6563 L1394.5469,233.25 L1398.5313,233.25 L1398.5313,234.1094 C1398.5313,234.5156 1398.5625,234.6875 1398.6406,234.8438 C1398.8125,235.0938 1399.0938,235.25 1399.375,235.25 C1399.6406,235.25 1399.9063,235.1094 1400.0781,234.8906 C1400.1875,234.7188 1400.2188,234.5781 1400.2188,234.1094 L1400.2188,231.5625 L1392.5938,231.5625 C1392.1563,231.5625 1392.0313,231.5781 1391.875,231.6719 C1391.625,231.8281 1391.4688,232.125 1391.4688,232.4063 C1391.4688,232.6875 1391.6094,232.9375 1391.8281,233.1094 C1391.9844,233.2188 1392.1719,233.25 1392.5938,233.25 L1392.8438,233.25 L1392.8438,239.7656 L1392.5938,239.7656 C1392.1875,239.7656 1392.0313,239.7813 1391.875,239.8906 C1391.625,240.0625 1391.4688,240.3281 1391.4688,240.625 C1391.4688,240.8906 1391.6094,241.1406 1391.8281,241.2969 C1391.9688,241.4219 1392.2031,241.4688 1392.5938,241.4688 L1400.5938,241.4688 L1400.5938,238.8906 C1400.5938,238.4531 1400.5625,238.3125 1400.4844,238.1563 C1400.3125,237.9063 1400.0313,237.75 1399.75,237.75 C1399.4844,237.75 1399.2188,237.8594 1399.0469,238.1094 C1398.9375,238.2656 1398.9063,238.4063 1398.9063,238.8906 L1398.9063,239.7656 L1394.5469,239.7656 L1394.5469,237.3438 Z "/><text fill="#000000" font-family="sans-serif" font-size="12" font-style="italic" lengthAdjust="spacingAndGlyphs" textLength="50" x="1444.25" y="233.6387">«Entity»</text><text fill="#000000" font-family="sans-serif" font-size="12" lengthAdjust="spacingAndGlyphs" textLength="106" x="1416.25" y="247.6074">CustomerAccount</text><line style="stroke: #A80036; stroke-width: 1.5;" x1="1337.5" x2="1568.5" y1="255.4375" y2="255.4375"/><text fill="#000000" font-family="sans-serif" font-size="11" lengthAdjust="spacingAndGlyphs" textLength="70" x="1342.5" y="269.6479">String name</text><text fill="#000000" font-family="sans-serif" font-size="11" lengthAdjust="spacingAndGlyphs" textLength="82" x="1342.5" y="282.4526">String address</text><text fill="#000000" font-family="sans-serif" font-size="11" lengthAdjust="spacingAndGlyphs" textLength="221" x="1342.5" y="295.2573">CustomerAccountId customeraccountId</text><line style="stroke: #A80036; stroke-width: 1.5;" x1="1337.5" x2="1568.5" y1="301.8516" y2="301.8516"/><!--MD5=[4fa077020d9420ad95c394797524f460]
class CustomerAccountId--><rect codeLine="9" fill="#FEFECE" filter="url(#fuzw3gi7ellmz)" height="66.7422" id="CustomerAccountId" style="stroke: #A80036; stroke-width: 1.5;" width="150" x="1153" y="405.5"/><ellipse cx="1168.45" cy="424.4688" fill="#8FBC8F" rx="11" ry="11" style="stroke: #A80036; stroke-width: 1.0;"/><path d="M1168.6063,428.0156 L1166.1531,422.25 L1166.4813,422.25 C1166.8875,422.25 1167.0438,422.2188 1167.1844,422.1406 C1167.45,421.9844 1167.5906,421.7031 1167.5906,421.4063 C1167.5906,421.1406 1167.4656,420.875 1167.2625,420.7031 C1167.0906,420.5938 1166.9188,420.5625 1166.4813,420.5625 L1164.2156,420.5625 C1163.7781,420.5625 1163.6531,420.5781 1163.4969,420.6719 C1163.2469,420.8281 1163.0906,421.125 1163.0906,421.4063 C1163.0906,421.75 1163.325,422.0938 1163.6219,422.1875 C1163.7781,422.2344 1163.9031,422.25 1164.2469,422.25 L1167.6844,430.4688 L1169.3719,430.4688 L1172.8563,422.25 C1173.2156,422.25 1173.325,422.2344 1173.4813,422.1875 C1173.7625,422.0938 1174.0125,421.75 1174.0125,421.4063 C1174.0125,421.1406 1173.8719,420.875 1173.6531,420.7031 C1173.4969,420.5938 1173.325,420.5625 1172.8875,420.5625 L1170.6375,420.5625 C1170.2,420.5625 1170.075,420.5781 1169.9344,420.6719 C1169.6688,420.8281 1169.5125,421.125 1169.5125,421.4063 C1169.5125,421.6875 1169.6531,421.9375 1169.8563,422.1094 C1170.0438,422.2188 1170.1844,422.25 1170.6375,422.25 L1171.0438,422.25 L1168.6063,428.0156 Z "/><text fill="#000000" font-family="sans-serif" font-size="12" font-style="italic" lengthAdjust="spacingAndGlyphs" textLength="90" x="1196.05" y="421.6387">«Value Object»</text><text fill="#000000" font-family="sans-serif" font-size="12" lengthAdjust="spacingAndGlyphs" textLength="117" x="1182.55" y="435.6074">CustomerAccountId</text><line style="stroke: #A80036; stroke-width: 1.5;" x1="1154" x2="1302" y1="443.4375" y2="443.4375"/><text fill="#000000" font-family="sans-serif" font-size="11" lengthAdjust="spacingAndGlyphs" textLength="138" x="1159" y="457.6479">Long customeraccountId</text><line style="stroke: #A80036; stroke-width: 1.5;" x1="1154" x2="1302" y1="464.2422" y2="464.2422"/><!--MD5=[72136138052d025cffdce3c22fbd185f]
class Product--><rect codeLine="12" fill="#FEFECE" filter="url(#fuzw3gi7ellmz)" height="105.1563" id="Product" style="stroke: #A80036; stroke-width: 1.5;" width="143" x="608.5" y="211"/><ellipse cx="652.75" cy="229.9688" fill="#8FBC8F" rx="11" ry="11" style="stroke: #A80036; stroke-width: 1.0;"/><path d="M651.5469,230.8438 L653,230.8438 L653,230.9531 C653,231.3594 653.0313,231.5156 653.1094,231.6719 C653.2656,231.9219 653.5469,232.0781 653.8438,232.0781 C654.0938,232.0781 654.3594,231.9375 654.5156,231.7188 C654.6406,231.5625 654.6719,231.4063 654.6719,230.9531 L654.6719,229.0313 C654.6719,228.875 654.6719,228.8281 654.6563,228.6719 C654.5938,228.2031 654.2813,227.8906 653.8281,227.8906 C653.5781,227.8906 653.3125,228.0313 653.1406,228.25 C653.0313,228.4219 653,228.5781 653,229.0313 L653,229.1563 L651.5469,229.1563 L651.5469,226.75 L655.5313,226.75 L655.5313,227.6094 C655.5313,228.0156 655.5625,228.1875 655.6406,228.3438 C655.8125,228.5938 656.0938,228.75 656.375,228.75 C656.6406,228.75 656.9063,228.6094 657.0781,228.3906 C657.1875,228.2188 657.2188,228.0781 657.2188,227.6094 L657.2188,225.0625 L649.5938,225.0625 C649.1563,225.0625 649.0313,225.0781 648.875,225.1719 C648.625,225.3281 648.4688,225.625 648.4688,225.9063 C648.4688,226.1875 648.6094,226.4375 648.8281,226.6094 C648.9844,226.7188 649.1719,226.75 649.5938,226.75 L649.8438,226.75 L649.8438,233.2656 L649.5938,233.2656 C649.1875,233.2656 649.0313,233.2813 648.875,233.3906 C648.625,233.5625 648.4688,233.8281 648.4688,234.125 C648.4688,234.3906 648.6094,234.6406 648.8281,234.7969 C648.9688,234.9219 649.2031,234.9688 649.5938,234.9688 L657.5938,234.9688 L657.5938,232.3906 C657.5938,231.9531 657.5625,231.8125 657.4844,231.6563 C657.3125,231.4063 657.0313,231.25 656.75,231.25 C656.4844,231.25 656.2188,231.3594 656.0469,231.6094 C655.9375,231.7656 655.9063,231.9063 655.9063,232.3906 L655.9063,233.2656 L651.5469,233.2656 L651.5469,230.8438 Z "/><text fill="#000000" font-family="sans-serif" font-size="12" font-style="italic" lengthAdjust="spacingAndGlyphs" textLength="50" x="671.25" y="227.1387">«Entity»</text><text fill="#000000" font-family="sans-serif" font-size="12" lengthAdjust="spacingAndGlyphs" textLength="45" x="673.75" y="241.1074">Product</text><line style="stroke: #A80036; stroke-width: 1.5;" x1="609.5" x2="750.5" y1="248.9375" y2="248.9375"/><text fill="#000000" font-family="sans-serif" font-size="11" lengthAdjust="spacingAndGlyphs" textLength="113" x="614.5" y="263.1479">String productName</text><text fill="#000000" font-family="sans-serif" font-size="11" lengthAdjust="spacingAndGlyphs" textLength="73" x="614.5" y="275.9526">String image</text><text fill="#000000" font-family="sans-serif" font-size="11" lengthAdjust="spacingAndGlyphs" textLength="131" x="614.5" y="288.7573">String productCategory</text><text fill="#000000" font-family="sans-serif" font-size="11" lengthAdjust="spacingAndGlyphs" textLength="107" x="614.5" y="301.562">ProductId productId</text><line style="stroke: #A80036; stroke-width: 1.5;" x1="609.5" x2="750.5" y1="308.1563" y2="308.1563"/><!--MD5=[6169a2479757b283a1264294dfbceae2]
class ProductId--><rect codeLine="18" fill="#FEFECE" filter="url(#fuzw3gi7ellmz)" height="66.7422" id="ProductId" style="stroke: #A80036; stroke-width: 1.5;" width="118" x="692" y="405.5"/><ellipse cx="707" cy="424.4688" fill="#8FBC8F" rx="11" ry="11" style="stroke: #A80036; stroke-width: 1.0;"/><path d="M707.1563,428.0156 L704.7031,422.25 L705.0313,422.25 C705.4375,422.25 705.5938,422.2188 705.7344,422.1406 C706,421.9844 706.1406,421.7031 706.1406,421.4063 C706.1406,421.1406 706.0156,420.875 705.8125,420.7031 C705.6406,420.5938 705.4688,420.5625 705.0313,420.5625 L702.7656,420.5625 C702.3281,420.5625 702.2031,420.5781 702.0469,420.6719 C701.7969,420.8281 701.6406,421.125 701.6406,421.4063 C701.6406,421.75 701.875,422.0938 702.1719,422.1875 C702.3281,422.2344 702.4531,422.25 702.7969,422.25 L706.2344,430.4688 L707.9219,430.4688 L711.4063,422.25 C711.7656,422.25 711.875,422.2344 712.0313,422.1875 C712.3125,422.0938 712.5625,421.75 712.5625,421.4063 C712.5625,421.1406 712.4219,420.875 712.2031,420.7031 C712.0469,420.5938 711.875,420.5625 711.4375,420.5625 L709.1875,420.5625 C708.75,420.5625 708.625,420.5781 708.4844,420.6719 C708.2188,420.8281 708.0625,421.125 708.0625,421.4063 C708.0625,421.6875 708.2031,421.9375 708.4063,422.1094 C708.5938,422.2188 708.7344,422.25 709.1875,422.25 L709.5938,422.25 L707.1563,428.0156 Z "/><text fill="#000000" font-family="sans-serif" font-size="12" font-style="italic" lengthAdjust="spacingAndGlyphs" textLength="90" x="719" y="421.6387">«Value Object»</text><text fill="#000000" font-family="sans-serif" font-size="12" lengthAdjust="spacingAndGlyphs" textLength="56" x="736" y="435.6074">ProductId</text><line style="stroke: #A80036; stroke-width: 1.5;" x1="693" x2="809" y1="443.4375" y2="443.4375"/><text fill="#000000" font-family="sans-serif" font-size="11" lengthAdjust="spacingAndGlyphs" textLength="83" x="698" y="457.6479">Long productId</text><line style="stroke: #A80036; stroke-width: 1.5;" x1="693" x2="809" y1="464.2422" y2="464.2422"/><!--MD5=[3854aa698878ea31bbbf1eb5d36dee80]
class ProductCatalog--><rect codeLine="21" fill="#FEFECE" filter="url(#fuzw3gi7ellmz)" height="79.5469" id="ProductCatalog" style="stroke: #A80036; stroke-width: 1.5;" width="203" x="823.5" y="48"/><ellipse cx="875.75" cy="66.9688" fill="#8FBC8F" rx="11" ry="11" style="stroke: #A80036; stroke-width: 1.0;"/><path d="M874.5469,67.8438 L876,67.8438 L876,67.9531 C876,68.3594 876.0313,68.5156 876.1094,68.6719 C876.2656,68.9219 876.5469,69.0781 876.8438,69.0781 C877.0938,69.0781 877.3594,68.9375 877.5156,68.7188 C877.6406,68.5625 877.6719,68.4063 877.6719,67.9531 L877.6719,66.0313 C877.6719,65.875 877.6719,65.8281 877.6563,65.6719 C877.5938,65.2031 877.2813,64.8906 876.8281,64.8906 C876.5781,64.8906 876.3125,65.0313 876.1406,65.25 C876.0313,65.4219 876,65.5781 876,66.0313 L876,66.1563 L874.5469,66.1563 L874.5469,63.75 L878.5313,63.75 L878.5313,64.6094 C878.5313,65.0156 878.5625,65.1875 878.6406,65.3438 C878.8125,65.5938 879.0938,65.75 879.375,65.75 C879.6406,65.75 879.9063,65.6094 880.0781,65.3906 C880.1875,65.2188 880.2188,65.0781 880.2188,64.6094 L880.2188,62.0625 L872.5938,62.0625 C872.1563,62.0625 872.0313,62.0781 871.875,62.1719 C871.625,62.3281 871.4688,62.625 871.4688,62.9063 C871.4688,63.1875 871.6094,63.4375 871.8281,63.6094 C871.9844,63.7188 872.1719,63.75 872.5938,63.75 L872.8438,63.75 L872.8438,70.2656 L872.5938,70.2656 C872.1875,70.2656 872.0313,70.2813 871.875,70.3906 C871.625,70.5625 871.4688,70.8281 871.4688,71.125 C871.4688,71.3906 871.6094,71.6406 871.8281,71.7969 C871.9688,71.9219 872.2031,71.9688 872.5938,71.9688 L880.5938,71.9688 L880.5938,69.3906 C880.5938,68.9531 880.5625,68.8125 880.4844,68.6563 C880.3125,68.4063 880.0313,68.25 879.75,68.25 C879.4844,68.25 879.2188,68.3594 879.0469,68.6094 C878.9375,68.7656 878.9063,68.9063 878.9063,69.3906 L878.9063,70.2656 L874.5469,70.2656 L874.5469,67.8438 Z "/><text fill="#000000" font-family="sans-serif" font-size="12" font-style="italic" lengthAdjust="spacingAndGlyphs" textLength="50" x="916.25" y="64.1387">«Entity»</text><text fill="#000000" font-family="sans-serif" font-size="12" lengthAdjust="spacingAndGlyphs" textLength="90" x="896.25" y="78.1074">ProductCatalog</text><line style="stroke: #A80036; stroke-width: 1.5;" x1="824.5" x2="1025.5" y1="85.9375" y2="85.9375"/><text fill="#000000" font-family="sans-serif" font-size="11" lengthAdjust="spacingAndGlyphs" textLength="191" x="829.5" y="100.1479">ProductCatalogId productcatalogId</text><text fill="#000000" font-family="sans-serif" font-size="11" lengthAdjust="spacingAndGlyphs" textLength="143" x="829.5" y="112.9526">List&lt;Product&gt; productList</text><line style="stroke: #A80036; stroke-width: 1.5;" x1="824.5" x2="1025.5" y1="119.5469" y2="119.5469"/><!--MD5=[1be880cb93abc249f04a5288c7eac9fd]
class ProductCatalogId--><rect codeLine="25" fill="#FEFECE" filter="url(#fuzw3gi7ellmz)" height="66.7422" id="ProductCatalogId" style="stroke: #A80036; stroke-width: 1.5;" width="136" x="937" y="230"/><ellipse cx="953.35" cy="248.9688" fill="#8FBC8F" rx="11" ry="11" style="stroke: #A80036; stroke-width: 1.0;"/><path d="M953.5063,252.5156 L951.0531,246.75 L951.3813,246.75 C951.7875,246.75 951.9438,246.7188 952.0844,246.6406 C952.35,246.4844 952.4906,246.2031 952.4906,245.9063 C952.4906,245.6406 952.3656,245.375 952.1625,245.2031 C951.9906,245.0938 951.8188,245.0625 951.3813,245.0625 L949.1156,245.0625 C948.6781,245.0625 948.5531,245.0781 948.3969,245.1719 C948.1469,245.3281 947.9906,245.625 947.9906,245.9063 C947.9906,246.25 948.225,246.5938 948.5219,246.6875 C948.6781,246.7344 948.8031,246.75 949.1469,246.75 L952.5844,254.9688 L954.2719,254.9688 L957.7563,246.75 C958.1156,246.75 958.225,246.7344 958.3813,246.6875 C958.6625,246.5938 958.9125,246.25 958.9125,245.9063 C958.9125,245.6406 958.7719,245.375 958.5531,245.2031 C958.3969,245.0938 958.225,245.0625 957.7875,245.0625 L955.5375,245.0625 C955.1,245.0625 954.975,245.0781 954.8344,245.1719 C954.5688,245.3281 954.4125,245.625 954.4125,245.9063 C954.4125,246.1875 954.5531,246.4375 954.7563,246.6094 C954.9438,246.7188 955.0844,246.75 955.5375,246.75 L955.9438,246.75 L953.5063,252.5156 Z "/><text fill="#000000" font-family="sans-serif" font-size="12" font-style="italic" lengthAdjust="spacingAndGlyphs" textLength="90" x="973.15" y="246.1387">«Value Object»</text><text fill="#000000" font-family="sans-serif" font-size="12" lengthAdjust="spacingAndGlyphs" textLength="101" x="967.65" y="260.1074">ProductCatalogId</text><line style="stroke: #A80036; stroke-width: 1.5;" x1="938" x2="1072" y1="267.9375" y2="267.9375"/><text fill="#000000" font-family="sans-serif" font-size="11" lengthAdjust="spacingAndGlyphs" textLength="124" x="943" y="282.1479">Long productcatalogId</text><line style="stroke: #A80036; stroke-width: 1.5;" x1="938" x2="1072" y1="288.7422" y2="288.7422"/><!--MD5=[cf4d6237fcae255cd2e1656cf84a30e2]
class Order--><rect codeLine="28" fill="#FEFECE" filter="url(#fuzw3gi7ellmz)" height="92.3516" id="Order" style="stroke: #A80036; stroke-width: 1.5;" width="186" x="209" y="217.5"/><ellipse cx="274.75" cy="236.4688" fill="#8FBC8F" rx="11" ry="11" style="stroke: #A80036; stroke-width: 1.0;"/><path d="M273.5469,237.3438 L275,237.3438 L275,237.4531 C275,237.8594 275.0313,238.0156 275.1094,238.1719 C275.2656,238.4219 275.5469,238.5781 275.8438,238.5781 C276.0938,238.5781 276.3594,238.4375 276.5156,238.2188 C276.6406,238.0625 276.6719,237.9063 276.6719,237.4531 L276.6719,235.5313 C276.6719,235.375 276.6719,235.3281 276.6563,235.1719 C276.5938,234.7031 276.2813,234.3906 275.8281,234.3906 C275.5781,234.3906 275.3125,234.5313 275.1406,234.75 C275.0313,234.9219 275,235.0781 275,235.5313 L275,235.6563 L273.5469,235.6563 L273.5469,233.25 L277.5313,233.25 L277.5313,234.1094 C277.5313,234.5156 277.5625,234.6875 277.6406,234.8438 C277.8125,235.0938 278.0938,235.25 278.375,235.25 C278.6406,235.25 278.9063,235.1094 279.0781,234.8906 C279.1875,234.7188 279.2188,234.5781 279.2188,234.1094 L279.2188,231.5625 L271.5938,231.5625 C271.1563,231.5625 271.0313,231.5781 270.875,231.6719 C270.625,231.8281 270.4688,232.125 270.4688,232.4063 C270.4688,232.6875 270.6094,232.9375 270.8281,233.1094 C270.9844,233.2188 271.1719,233.25 271.5938,233.25 L271.8438,233.25 L271.8438,239.7656 L271.5938,239.7656 C271.1875,239.7656 271.0313,239.7813 270.875,239.8906 C270.625,240.0625 270.4688,240.3281 270.4688,240.625 C270.4688,240.8906 270.6094,241.1406 270.8281,241.2969 C270.9688,241.4219 271.2031,241.4688 271.5938,241.4688 L279.5938,241.4688 L279.5938,238.8906 C279.5938,238.4531 279.5625,238.3125 279.4844,238.1563 C279.3125,237.9063 279.0313,237.75 278.75,237.75 C278.4844,237.75 278.2188,237.8594 278.0469,238.1094 C277.9375,238.2656 277.9063,238.4063 277.9063,238.8906 L277.9063,239.7656 L273.5469,239.7656 L273.5469,237.3438 Z "/><text fill="#000000" font-family="sans-serif" font-size="12" font-style="italic" lengthAdjust="spacingAndGlyphs" textLength="50" x="293.25" y="233.6387">«Entity»</text><text fill="#000000" font-family="sans-serif" font-size="12" lengthAdjust="spacingAndGlyphs" textLength="36" x="300.25" y="247.6074">Order</text><line style="stroke: #A80036; stroke-width: 1.5;" x1="210" x2="394" y1="255.4375" y2="255.4375"/><text fill="#000000" font-family="sans-serif" font-size="11" lengthAdjust="spacingAndGlyphs" textLength="112" x="215" y="269.6479">String orderNumber</text><text fill="#000000" font-family="sans-serif" font-size="11" lengthAdjust="spacingAndGlyphs" textLength="86" x="215" y="282.4526">OrderId orderId</text><text fill="#000000" font-family="sans-serif" font-size="11" lengthAdjust="spacingAndGlyphs" textLength="174" x="215" y="295.2573">List&lt;OrderItem&gt; orderitemList</text><line style="stroke: #A80036; stroke-width: 1.5;" x1="210" x2="394" y1="301.8516" y2="301.8516"/><!--MD5=[0d19ee3c07ca588b90e2145504fa9be9]
class OrderId--><rect codeLine="33" fill="#FEFECE" filter="url(#fuzw3gi7ellmz)" height="66.7422" id="OrderId" style="stroke: #A80036; stroke-width: 1.5;" width="118" x="113" y="405.5"/><ellipse cx="128" cy="424.4688" fill="#8FBC8F" rx="11" ry="11" style="stroke: #A80036; stroke-width: 1.0;"/><path d="M128.1563,428.0156 L125.7031,422.25 L126.0313,422.25 C126.4375,422.25 126.5938,422.2188 126.7344,422.1406 C127,421.9844 127.1406,421.7031 127.1406,421.4063 C127.1406,421.1406 127.0156,420.875 126.8125,420.7031 C126.6406,420.5938 126.4688,420.5625 126.0313,420.5625 L123.7656,420.5625 C123.3281,420.5625 123.2031,420.5781 123.0469,420.6719 C122.7969,420.8281 122.6406,421.125 122.6406,421.4063 C122.6406,421.75 122.875,422.0938 123.1719,422.1875 C123.3281,422.2344 123.4531,422.25 123.7969,422.25 L127.2344,430.4688 L128.9219,430.4688 L132.4063,422.25 C132.7656,422.25 132.875,422.2344 133.0313,422.1875 C133.3125,422.0938 133.5625,421.75 133.5625,421.4063 C133.5625,421.1406 133.4219,420.875 133.2031,420.7031 C133.0469,420.5938 132.875,420.5625 132.4375,420.5625 L130.1875,420.5625 C129.75,420.5625 129.625,420.5781 129.4844,420.6719 C129.2188,420.8281 129.0625,421.125 129.0625,421.4063 C129.0625,421.6875 129.2031,421.9375 129.4063,422.1094 C129.5938,422.2188 129.7344,422.25 130.1875,422.25 L130.5938,422.25 L128.1563,428.0156 Z "/><text fill="#000000" font-family="sans-serif" font-size="12" font-style="italic" lengthAdjust="spacingAndGlyphs" textLength="90" x="140" y="421.6387">«Value Object»</text><text fill="#000000" font-family="sans-serif" font-size="12" lengthAdjust="spacingAndGlyphs" textLength="47" x="161.5" y="435.6074">OrderId</text><line style="stroke: #A80036; stroke-width: 1.5;" x1="114" x2="230" y1="443.4375" y2="443.4375"/><text fill="#000000" font-family="sans-serif" font-size="11" lengthAdjust="spacingAndGlyphs" textLength="71" x="119" y="457.6479">Long orderId</text><line style="stroke: #A80036; stroke-width: 1.5;" x1="114" x2="230" y1="464.2422" y2="464.2422"/><!--MD5=[003718b22fee2486eeba0fa029a176b7]
class OrderItem--><rect codeLine="36" fill="#FEFECE" filter="url(#fuzw3gi7ellmz)" height="92.3516" id="OrderItem" style="stroke: #A80036; stroke-width: 1.5;" width="150" x="266" y="393"/><ellipse cx="306.2" cy="411.9688" fill="#8FBC8F" rx="11" ry="11" style="stroke: #A80036; stroke-width: 1.0;"/><path d="M304.9969,412.8438 L306.45,412.8438 L306.45,412.9531 C306.45,413.3594 306.4813,413.5156 306.5594,413.6719 C306.7156,413.9219 306.9969,414.0781 307.2938,414.0781 C307.5438,414.0781 307.8094,413.9375 307.9656,413.7188 C308.0906,413.5625 308.1219,413.4063 308.1219,412.9531 L308.1219,411.0313 C308.1219,410.875 308.1219,410.8281 308.1063,410.6719 C308.0438,410.2031 307.7313,409.8906 307.2781,409.8906 C307.0281,409.8906 306.7625,410.0313 306.5906,410.25 C306.4813,410.4219 306.45,410.5781 306.45,411.0313 L306.45,411.1563 L304.9969,411.1563 L304.9969,408.75 L308.9813,408.75 L308.9813,409.6094 C308.9813,410.0156 309.0125,410.1875 309.0906,410.3438 C309.2625,410.5938 309.5438,410.75 309.825,410.75 C310.0906,410.75 310.3563,410.6094 310.5281,410.3906 C310.6375,410.2188 310.6688,410.0781 310.6688,409.6094 L310.6688,407.0625 L303.0438,407.0625 C302.6063,407.0625 302.4813,407.0781 302.325,407.1719 C302.075,407.3281 301.9188,407.625 301.9188,407.9063 C301.9188,408.1875 302.0594,408.4375 302.2781,408.6094 C302.4344,408.7188 302.6219,408.75 303.0438,408.75 L303.2938,408.75 L303.2938,415.2656 L303.0438,415.2656 C302.6375,415.2656 302.4813,415.2813 302.325,415.3906 C302.075,415.5625 301.9188,415.8281 301.9188,416.125 C301.9188,416.3906 302.0594,416.6406 302.2781,416.7969 C302.4188,416.9219 302.6531,416.9688 303.0438,416.9688 L311.0438,416.9688 L311.0438,414.3906 C311.0438,413.9531 311.0125,413.8125 310.9344,413.6563 C310.7625,413.4063 310.4813,413.25 310.2,413.25 C309.9344,413.25 309.6688,413.3594 309.4969,413.6094 C309.3875,413.7656 309.3563,413.9063 309.3563,414.3906 L309.3563,415.2656 L304.9969,415.2656 L304.9969,412.8438 Z "/><text fill="#000000" font-family="sans-serif" font-size="12" font-style="italic" lengthAdjust="spacingAndGlyphs" textLength="50" x="331.8" y="409.1387">«Entity»</text><text fill="#000000" font-family="sans-serif" font-size="12" lengthAdjust="spacingAndGlyphs" textLength="62" x="325.8" y="423.1074">OrderItem</text><line style="stroke: #A80036; stroke-width: 1.5;" x1="267" x2="415" y1="430.9375" y2="430.9375"/><text fill="#000000" font-family="sans-serif" font-size="11" lengthAdjust="spacingAndGlyphs" textLength="113" x="272" y="445.1479">String productName</text><text fill="#000000" font-family="sans-serif" font-size="11" lengthAdjust="spacingAndGlyphs" textLength="65" x="272" y="457.9526">String price</text><text fill="#000000" font-family="sans-serif" font-size="11" lengthAdjust="spacingAndGlyphs" textLength="138" x="272" y="470.7573">OrderItemId orderitemId</text><line style="stroke: #A80036; stroke-width: 1.5;" x1="267" x2="415" y1="477.3516" y2="477.3516"/><!--MD5=[60f6683d3825d7367bc579729ee98170]
class OrderItemId--><rect codeLine="41" fill="#FEFECE" filter="url(#fuzw3gi7ellmz)" height="66.7422" id="OrderItemId" style="stroke: #A80036; stroke-width: 1.5;" width="118" x="92" y="562"/><ellipse cx="107" cy="580.9688" fill="#8FBC8F" rx="11" ry="11" style="stroke: #A80036; stroke-width: 1.0;"/><path d="M107.1563,584.5156 L104.7031,578.75 L105.0313,578.75 C105.4375,578.75 105.5938,578.7188 105.7344,578.6406 C106,578.4844 106.1406,578.2031 106.1406,577.9063 C106.1406,577.6406 106.0156,577.375 105.8125,577.2031 C105.6406,577.0938 105.4688,577.0625 105.0313,577.0625 L102.7656,577.0625 C102.3281,577.0625 102.2031,577.0781 102.0469,577.1719 C101.7969,577.3281 101.6406,577.625 101.6406,577.9063 C101.6406,578.25 101.875,578.5938 102.1719,578.6875 C102.3281,578.7344 102.4531,578.75 102.7969,578.75 L106.2344,586.9688 L107.9219,586.9688 L111.4063,578.75 C111.7656,578.75 111.875,578.7344 112.0313,578.6875 C112.3125,578.5938 112.5625,578.25 112.5625,577.9063 C112.5625,577.6406 112.4219,577.375 112.2031,577.2031 C112.0469,577.0938 111.875,577.0625 111.4375,577.0625 L109.1875,577.0625 C108.75,577.0625 108.625,577.0781 108.4844,577.1719 C108.2188,577.3281 108.0625,577.625 108.0625,577.9063 C108.0625,578.1875 108.2031,578.4375 108.4063,578.6094 C108.5938,578.7188 108.7344,578.75 109.1875,578.75 L109.5938,578.75 L107.1563,584.5156 Z "/><text fill="#000000" font-family="sans-serif" font-size="12" font-style="italic" lengthAdjust="spacingAndGlyphs" textLength="90" x="119" y="578.1387">«Value Object»</text><text fill="#000000" font-family="sans-serif" font-size="12" lengthAdjust="spacingAndGlyphs" textLength="73" x="127.5" y="592.1074">OrderItemId</text><line style="stroke: #A80036; stroke-width: 1.5;" x1="93" x2="209" y1="599.9375" y2="599.9375"/><text fill="#000000" font-family="sans-serif" font-size="11" lengthAdjust="spacingAndGlyphs" textLength="97" x="98" y="614.1479">Long orderitemId</text><line style="stroke: #A80036; stroke-width: 1.5;" x1="93" x2="209" y1="620.7422" y2="620.7422"/><!--MD5=[10d059b120f74e33f22f8f605535ba29]
class UC1RegisterService--><rect codeLine="44" fill="#FEFECE" filter="url(#fuzw3gi7ellmz)" height="66.7422" id="UC1RegisterService" style="stroke: #A80036; stroke-width: 1.5;" width="473" x="1078.5" y="54.5"/><ellipse cx="1250.75" cy="73.4688" fill="#8FBC8F" rx="11" ry="11" style="stroke: #A80036; stroke-width: 1.0;"/><path d="M1254.5313,69.4375 C1254.5313,69 1254.5156,68.8594 1254.4219,68.7031 C1254.2813,68.4688 1254,68.3125 1253.7031,68.3125 C1253.3594,68.3125 1253.2188,68.4531 1253.0469,68.875 C1252.4531,68.5 1251.7031,68.3125 1250.8281,68.3125 C1248.7188,68.3125 1247.1406,69.6094 1247.1406,71.3281 C1247.1406,72.2969 1247.6719,73.2031 1248.5313,73.6875 C1249.0781,74 1249.625,74.1719 1250.7344,74.3594 C1251.8906,74.5625 1252.1563,74.625 1252.5156,74.8125 C1252.8906,75.0156 1253.125,75.3594 1253.125,75.7188 C1253.125,76.4531 1252.1406,77 1250.8906,77 C1249.7656,77 1248.6875,76.5156 1248.5156,75.9063 C1248.3906,75.4375 1248.3906,75.4375 1248.2656,75.3281 C1248.1094,75.1719 1247.8906,75.0781 1247.6563,75.0781 C1247.375,75.0781 1247.125,75.2031 1246.9531,75.4219 C1246.8438,75.5938 1246.7969,75.7813 1246.7969,76.2031 L1246.7969,77.3281 C1246.7969,78.0938 1247.0781,78.4531 1247.6719,78.4531 C1247.9375,78.4531 1248.0625,78.3906 1248.3438,78.0469 C1249.1875,78.4844 1250.0781,78.7031 1251,78.7031 C1253.3281,78.7031 1254.8906,77.5156 1254.8906,75.75 C1254.8906,74.8594 1254.5781,74.1719 1253.8906,73.625 C1253.3594,73.2031 1252.7188,72.9531 1251.2344,72.6875 C1249.9688,72.4531 1249.875,72.4219 1249.5469,72.25 C1249.1719,72.0625 1248.9063,71.6719 1248.9063,71.3125 C1248.9063,70.5781 1249.7656,70.0156 1250.8281,70.0156 C1251.8906,70.0156 1252.7031,70.4844 1252.8594,71.1563 C1252.9688,71.7031 1252.9688,71.7031 1253.0938,71.8438 C1253.2344,71.9688 1253.4688,72.0781 1253.7031,72.0781 C1253.9688,72.0781 1254.2188,71.9375 1254.3906,71.7188 C1254.5,71.5469 1254.5313,71.4063 1254.5313,70.9375 L1254.5313,69.4375 Z "/><text fill="#000000" font-family="sans-serif" font-size="12" font-style="italic" lengthAdjust="spacingAndGlyphs" textLength="58" x="1302.25" y="70.6387">«Service»</text><text fill="#000000" font-family="sans-serif" font-size="12" lengthAdjust="spacingAndGlyphs" textLength="120" x="1271.25" y="84.6074">UC1RegisterService</text><line style="stroke: #A80036; stroke-width: 1.5;" x1="1079.5" x2="1550.5" y1="92.4375" y2="92.4375"/><line style="stroke: #A80036; stroke-width: 1.5;" x1="1079.5" x2="1550.5" y1="100.4375" y2="100.4375"/><text fill="#000000" font-family="sans-serif" font-size="11" lengthAdjust="spacingAndGlyphs" textLength="461" x="1084.5" y="114.6479">CustomerAccountId createCustomerAccount(CustomerAccount customerAccount)</text><!--MD5=[9e9bd5b68c61f3e8938f1fda8e5399b6]
class UC2BrowseAndBuyService--><rect codeLine="47" fill="#FEFECE" filter="url(#fuzw3gi7ellmz)" height="92.3516" id="UC2BrowseAndBuyService" style="stroke: #A80036; stroke-width: 1.5;" width="315" x="226.5" y="42"/><ellipse cx="298.75" cy="60.9688" fill="#8FBC8F" rx="11" ry="11" style="stroke: #A80036; stroke-width: 1.0;"/><path d="M302.5313,56.9375 C302.5313,56.5 302.5156,56.3594 302.4219,56.2031 C302.2813,55.9688 302,55.8125 301.7031,55.8125 C301.3594,55.8125 301.2188,55.9531 301.0469,56.375 C300.4531,56 299.7031,55.8125 298.8281,55.8125 C296.7188,55.8125 295.1406,57.1094 295.1406,58.8281 C295.1406,59.7969 295.6719,60.7031 296.5313,61.1875 C297.0781,61.5 297.625,61.6719 298.7344,61.8594 C299.8906,62.0625 300.1563,62.125 300.5156,62.3125 C300.8906,62.5156 301.125,62.8594 301.125,63.2188 C301.125,63.9531 300.1406,64.5 298.8906,64.5 C297.7656,64.5 296.6875,64.0156 296.5156,63.4063 C296.3906,62.9375 296.3906,62.9375 296.2656,62.8281 C296.1094,62.6719 295.8906,62.5781 295.6563,62.5781 C295.375,62.5781 295.125,62.7031 294.9531,62.9219 C294.8438,63.0938 294.7969,63.2813 294.7969,63.7031 L294.7969,64.8281 C294.7969,65.5938 295.0781,65.9531 295.6719,65.9531 C295.9375,65.9531 296.0625,65.8906 296.3438,65.5469 C297.1875,65.9844 298.0781,66.2031 299,66.2031 C301.3281,66.2031 302.8906,65.0156 302.8906,63.25 C302.8906,62.3594 302.5781,61.6719 301.8906,61.125 C301.3594,60.7031 300.7188,60.4531 299.2344,60.1875 C297.9688,59.9531 297.875,59.9219 297.5469,59.75 C297.1719,59.5625 296.9063,59.1719 296.9063,58.8125 C296.9063,58.0781 297.7656,57.5156 298.8281,57.5156 C299.8906,57.5156 300.7031,57.9844 300.8594,58.6563 C300.9688,59.2031 300.9688,59.2031 301.0938,59.3438 C301.2344,59.4688 301.4688,59.5781 301.7031,59.5781 C301.9688,59.5781 302.2188,59.4375 302.3906,59.2188 C302.5,59.0469 302.5313,58.9063 302.5313,58.4375 L302.5313,56.9375 Z "/><text fill="#000000" font-family="sans-serif" font-size="12" font-style="italic" lengthAdjust="spacingAndGlyphs" textLength="58" x="371.25" y="58.1387">«Service»</text><text fill="#000000" font-family="sans-serif" font-size="12" lengthAdjust="spacingAndGlyphs" textLength="162" x="319.25" y="72.1074">UC2BrowseAndBuyService</text><line style="stroke: #A80036; stroke-width: 1.5;" x1="227.5" x2="540.5" y1="79.9375" y2="79.9375"/><line style="stroke: #A80036; stroke-width: 1.5;" x1="227.5" x2="540.5" y1="87.9375" y2="87.9375"/><text fill="#000000" font-family="sans-serif" font-size="11" lengthAdjust="spacingAndGlyphs" textLength="303" x="232.5" y="102.1479">Set&lt;Product&gt; readProduct(Set&lt;ProductId&gt; productId)</text><text fill="#000000" font-family="sans-serif" font-size="11" lengthAdjust="spacingAndGlyphs" textLength="189" x="232.5" y="114.9526">OrderId createOrder(Order order)</text><text fill="#000000" font-family="sans-serif" font-size="11" lengthAdjust="spacingAndGlyphs" textLength="293" x="232.5" y="127.7573">OrderItemId createOrderItem(OrderItem orderItem)</text><!--MD5=[90767ab19f818b47cc626b76832b14a5]
link CustomerAccount to CustomerAccountId--><path codeLine="53" d="M1394.47,309.632 C1357.06,338.481 1309.21,375.376 1274.42,402.202 " fill="none" id="CustomerAccount-to-CustomerAccountId" style="stroke: #A80036; stroke-width: 1.0;"/><polygon fill="#A80036" points="1270.25,405.422,1279.8184,403.0884,1274.2078,402.3666,1274.9297,396.7559,1270.25,405.422" style="stroke: #A80036; stroke-width: 1.0;"/><text fill="#000000" font-family="sans-serif" font-size="13" lengthAdjust="spacingAndGlyphs" textLength="123" x="1348" y="359.0669">customeraccountId</text><!--MD5=[b918122e4c6561aada27897a41a93632]
link Product to ProductId--><path codeLine="54" d="M701.11,316.086 C712.223,343.243 725.602,375.935 735.706,400.626 " fill="none" id="Product-to-ProductId" style="stroke: #A80036; stroke-width: 1.0;"/><polygon fill="#A80036" points="737.681,405.453,737.973,395.6085,735.7867,400.8257,730.5694,398.6394,737.681,405.453" style="stroke: #A80036; stroke-width: 1.0;"/><text fill="#000000" font-family="sans-serif" font-size="13" lengthAdjust="spacingAndGlyphs" textLength="60" x="720" y="359.0669">productId</text><!--MD5=[d53a0f3e7e3d66c4cbbabab64025323b]
link ProductCatalog to ProductCatalogId--><path codeLine="55" d="M943.153,128.37 C956.532,157.385 974.614,196.601 987.77,225.132 " fill="none" id="ProductCatalog-to-ProductCatalogId" style="stroke: #A80036; stroke-width: 1.0;"/><polygon fill="#A80036" points="990.002,229.973,989.8643,220.1251,987.9076,225.4328,982.5999,223.4761,990.002,229.973" style="stroke: #A80036; stroke-width: 1.0;"/><text fill="#000000" font-family="sans-serif" font-size="13" lengthAdjust="spacingAndGlyphs" textLength="107" x="968" y="177.0669">productcatalogId</text><!--MD5=[775cc16ae84e9d28faaed1ac152eeedb]
link ProductCatalog to Product--><path codeLine="56" d="M869.712,128.153 C836.214,151.875 793.004,182.475 756.285,208.478 " fill="none" id="ProductCatalog-to-Product" style="stroke: #A80036; stroke-width: 1.0;"/><polygon fill="#A80036" points="751.84,211.625,761.4966,209.6885,755.9206,208.7356,756.8735,203.1596,751.84,211.625" style="stroke: #A80036; stroke-width: 1.0;"/><text fill="#000000" font-family="sans-serif" font-size="13" lengthAdjust="spacingAndGlyphs" textLength="71" x="818" y="177.0669">productList</text><!--MD5=[d570b1b0637319cce03fc2f45d679ed2]
link Order to OrderId--><path codeLine="57" d="M268.183,309.632 C246.832,338.129 219.596,374.477 199.561,401.216 " fill="none" id="Order-to-OrderId" style="stroke: #A80036; stroke-width: 1.0;"/><polygon fill="#A80036" points="196.41,405.422,205.007,400.6166,199.4075,401.4201,198.604,395.8206,196.41,405.422" style="stroke: #A80036; stroke-width: 1.0;"/><text fill="#000000" font-family="sans-serif" font-size="13" lengthAdjust="spacingAndGlyphs" textLength="45" x="242" y="359.0669">orderId</text><!--MD5=[06a6064c5cdd443a62b5eb59fb550c27]
link Order to OrderItem--><path codeLine="58" d="M312.145,309.632 C317.518,333.535 324.133,362.963 329.673,387.61 " fill="none" id="Order-to-OrderItem" style="stroke: #A80036; stroke-width: 1.0;"/><polygon fill="#A80036" points="330.838,392.793,332.7685,383.1352,329.7423,387.9145,324.963,384.8883,330.838,392.793" style="stroke: #A80036; stroke-width: 1.0;"/><text fill="#000000" font-family="sans-serif" font-size="13" lengthAdjust="spacingAndGlyphs" textLength="85" x="325" y="359.0669">orderitemList</text><!--MD5=[17e406512cf249e1a9baaf47d05015c7]
link OrderItem to OrderItemId--><path codeLine="59" d="M285.533,485.103 C256.719,508.534 221.999,536.766 195.049,558.681 " fill="none" id="OrderItem-to-OrderItemId" style="stroke: #A80036; stroke-width: 1.0;"/><polygon fill="#A80036" points="191.131,561.8673,200.6377,559.2938,195.0107,558.7133,195.5912,553.0863,191.131,561.8673" style="stroke: #A80036; stroke-width: 1.0;"/><text fill="#000000" font-family="sans-serif" font-size="13" lengthAdjust="spacingAndGlyphs" textLength="74" x="247" y="528.0669">orderitemId</text><!--MD5=[8448af952567502f6216a2ac72feb716]
link UC1RegisterService to CustomerAccountId--><path codeLine="60" d="M1250.27,121.743 C1217.01,142.389 1179.64,172.462 1161,211 C1130.33,274.43 1170.8,354.729 1200.88,400.842 " fill="none" id="UC1RegisterService-to-CustomerAccountId" style="stroke: #A80036; stroke-width: 1.0;"/><polygon fill="#A80036" points="1203.75,405.196,1202.1267,395.4818,1200.994,401.0241,1195.4517,399.8914,1203.75,405.196" style="stroke: #A80036; stroke-width: 1.0;"/><text fill="#000000" font-family="sans-serif" font-size="13" lengthAdjust="spacingAndGlyphs" textLength="156" x="1162" y="268.0669">createCustomerAccount</text><!--MD5=[0553f1b92172fb3fe3761c5f982998cf]
link UC1RegisterService to CustomerAccount--><path codeLine="61" d="M1340.96,121.634 C1361.42,147.363 1390.3,183.666 1413.61,212.975 " fill="none" id="UC1RegisterService-to-CustomerAccount" style="stroke: #A80036; stroke-width: 1.0;"/><polygon fill="#A80036" points="1417.01,217.246,1414.5389,207.7122,1413.8979,213.3326,1408.2774,212.6916,1417.01,217.246" style="stroke: #A80036; stroke-width: 1.0;"/><text fill="#000000" font-family="sans-serif" font-size="13" lengthAdjust="spacingAndGlyphs" textLength="156" x="1389" y="177.0669">createCustomerAccount</text><!--MD5=[63ca41de1f878eb37088fbda5f52b4b5]
link UC2BrowseAndBuyService to Product--><path codeLine="62" d="M460.998,134.132 C505.05,159.953 560.1,192.221 603.986,217.945 " fill="none" id="UC2BrowseAndBuyService-to-Product" style="stroke: #A80036; stroke-width: 1.0;"/><polygon fill="#A80036" points="608.468,220.571,602.7259,212.5692,604.1543,218.0428,598.6807,219.4711,608.468,220.571" style="stroke: #A80036; stroke-width: 1.0;"/><text fill="#000000" font-family="sans-serif" font-size="13" lengthAdjust="spacingAndGlyphs" textLength="78" x="542" y="177.0669">readProduct</text><!--MD5=[09af58b2a713f3c4e065257264149b0e]
link UC2BrowseAndBuyService to ProductId--><path codeLine="63" d="M541.975,99.854 C621.859,113.875 713.415,144.602 769,211 C812.739,263.247 804.831,296.727 789,363 C785.916,375.91 780.229,389.111 774.177,400.767 " fill="none" id="UC2BrowseAndBuyService-to-ProductId" style="stroke: #A80036; stroke-width: 1.0;"/><polygon fill="#A80036" points="771.752,405.323,779.5106,399.2563,774.1005,400.9089,772.448,395.4988,771.752,405.323" style="stroke: #A80036; stroke-width: 1.0;"/><text fill="#000000" font-family="sans-serif" font-size="13" lengthAdjust="spacingAndGlyphs" textLength="78" x="802" y="268.0669">readProduct</text><!--MD5=[c006d68ee446b27b43f074e4650185c3]
link UC2BrowseAndBuyService to OrderId--><path codeLine="64" d="M226.494,124.818 C181.904,143.012 138.37,170.271 112,211 C86.6374,250.173 88.1783,275.871 112,316 C126.214,339.943 152.142,322.451 167,346 C176.979,361.815 178.886,382.372 178.013,400.041 " fill="none" id="UC2BrowseAndBuyService-to-OrderId" style="stroke: #A80036; stroke-width: 1.0;"/><polygon fill="#A80036" points="177.659,405.424,182.2417,396.7063,177.9875,400.4348,174.259,396.1806,177.659,405.424" style="stroke: #A80036; stroke-width: 1.0;"/><text fill="#000000" font-family="sans-serif" font-size="13" lengthAdjust="spacingAndGlyphs" textLength="77" x="113" y="268.0669">createOrder</text><!--MD5=[69b10b5d3dd4562f7f1ba9cd3e9d08c9]
link UC2BrowseAndBuyService to Order--><path codeLine="65" d="M362.67,134.132 C351.278,158.235 337.231,187.956 325.524,212.727 " fill="none" id="UC2BrowseAndBuyService-to-Order" style="stroke: #A80036; stroke-width: 1.0;"/><polygon fill="#A80036" points="323.366,217.293,330.8284,210.8655,325.5027,212.7725,323.5957,207.4468,323.366,217.293" style="stroke: #A80036; stroke-width: 1.0;"/><text fill="#000000" font-family="sans-serif" font-size="13" lengthAdjust="spacingAndGlyphs" textLength="77" x="349" y="177.0669">createOrder</text><!--MD5=[5259a0051e617026bd9911185a6de8cd]
link UC2BrowseAndBuyService to OrderItemId--><path codeLine="66" d="M226.389,112.099 C170.57,129.243 114.569,159.083 86,211 C52.5787,271.735 39.0621,294.712 51,363 C60.9261,419.78 72.0536,432.123 95,485 C105.668,509.584 119.336,536.382 130.498,557.314 " fill="none" id="UC2BrowseAndBuyService-to-OrderItemId" style="stroke: #A80036; stroke-width: 1.0;"/><polygon fill="#A80036" points="132.985,561.9591,132.2639,552.1367,130.6252,557.551,125.2109,555.9123,132.985,561.9591" style="stroke: #A80036; stroke-width: 1.0;"/><text fill="#000000" font-family="sans-serif" font-size="13" lengthAdjust="spacingAndGlyphs" textLength="106" x="52" y="359.0669">createOrderItem</text><!--MD5=[c05c475151670d125e40f7c95b96a623]
link UC2BrowseAndBuyService to OrderItem--><path codeLine="67" d="M421.02,134.379 C426.775,143.678 431.85,153.766 435,164 C442.948,189.823 493.423,207.484 419,363 C414.609,372.174 408.587,380.823 401.82,388.757 " fill="none" id="UC2BrowseAndBuyService-to-OrderItem" style="stroke: #A80036; stroke-width: 1.0;"/><polygon fill="#A80036" points="398.442,392.594,407.3916,388.4825,401.7461,388.8413,401.3873,383.1958,398.442,392.594" style="stroke: #A80036; stroke-width: 1.0;"/><text fill="#000000" font-family="sans-serif" font-size="13" lengthAdjust="spacingAndGlyphs" textLength="106" x="461" y="268.0669">createOrderItem</text><rect fill="#DDDDDD" height="107.7813" rx="5" ry="5" style="stroke: #000000; stroke-width: 1.0;" width="811" x="8" y="664"/><text fill="#000000" font-family="sans-serif" font-size="14" lengthAdjust="spacingAndGlyphs" textLength="799" x="14" y="681.9951">This bounded context implements the subdomain 'BusinessToConsumer', which contains the following entities:</text><text fill="#000000" font-family="sans-serif" font-size="14" lengthAdjust="spacingAndGlyphs" textLength="139" x="18" y="698.292">- CustomerAccount</text><text fill="#000000" font-family="sans-serif" font-size="14" lengthAdjust="spacingAndGlyphs" textLength="66" x="18" y="714.5889">- Product</text><text fill="#000000" font-family="sans-serif" font-size="14" lengthAdjust="spacingAndGlyphs" textLength="121" x="18" y="730.8857">- ProductCatalog</text><text fill="#000000" font-family="sans-serif" font-size="14" lengthAdjust="spacingAndGlyphs" textLength="51" x="18" y="747.1826">- Order</text><text fill="#000000" font-family="sans-serif" font-size="14" lengthAdjust="spacingAndGlyphs" textLength="85" x="18" y="763.4795">- OrderItem</text><!--MD5=[31266df8558a9de09af8a33c08595f0b]
@startuml
skinparam componentStyle uml2

package "'BusinessToConsumerAggregate' Aggregate" <<Rectangle>> {
	class CustomerAccount <<(E,DarkSeaGreen) Entity>> {
		String name
		String address
		CustomerAccountId customeraccountId
	}
	class CustomerAccountId <<(V,DarkSeaGreen) Value Object>> {
		Long customeraccountId
	}
	class Product <<(E,DarkSeaGreen) Entity>> {
		String productName
		String image
		String productCategory
		ProductId productId
	}
	class ProductId <<(V,DarkSeaGreen) Value Object>> {
		Long productId
	}
	class ProductCatalog <<(E,DarkSeaGreen) Entity>> {
		ProductCatalogId productcatalogId
		List<Product> productList
	}
	class ProductCatalogId <<(V,DarkSeaGreen) Value Object>> {
		Long productcatalogId
	}
	class Order <<(E,DarkSeaGreen) Entity>> {
		String orderNumber
		OrderId orderId
		List<OrderItem> orderitemList
	}
	class OrderId <<(V,DarkSeaGreen) Value Object>> {
		Long orderId
	}
	class OrderItem <<(E,DarkSeaGreen) Entity>> {
		String productName
		String price
		OrderItemId orderitemId
	}
	class OrderItemId <<(V,DarkSeaGreen) Value Object>> {
		Long orderitemId
	}
	class UC1RegisterService <<(S,DarkSeaGreen) Service>> {
		CustomerAccountId createCustomerAccount(CustomerAccount customerAccount)
	}
	class UC2BrowseAndBuyService <<(S,DarkSeaGreen) Service>> {
		Set<Product> readProduct(Set<ProductId> productId)
		OrderId createOrder(Order order)
		OrderItemId createOrderItem(OrderItem orderItem)
	}
}
CustomerAccount - -> CustomerAccountId : customeraccountId
Product - -> ProductId : productId
ProductCatalog - -> ProductCatalogId : productcatalogId
ProductCatalog - -> Product : productList
Order - -> OrderId : orderId
Order - -> OrderItem : orderitemList
OrderItem - -> OrderItemId : orderitemId
UC1RegisterService - -> CustomerAccountId : createCustomerAccount
UC1RegisterService - -> CustomerAccount : createCustomerAccount
UC2BrowseAndBuyService - -> Product : readProduct
UC2BrowseAndBuyService - -> ProductId : readProduct
UC2BrowseAndBuyService - -> OrderId : createOrder
UC2BrowseAndBuyService - -> Order : createOrder
UC2BrowseAndBuyService - -> OrderItemId : createOrderItem
UC2BrowseAndBuyService - -> OrderItem : createOrderItem
legend left
  This bounded context implements the subdomain 'BusinessToConsumer', which contains the following entities:
   - CustomerAccount
   - Product
   - ProductCatalog
   - Order
   - OrderItem
end legend
@enduml

PlantUML version 1.2020.16(Sun Aug 23 20:20:43 UTC 2020)
(GPL source distribution)
Java Runtime: Java(TM) SE Runtime Environment
JVM: Java HotSpot(TM) 64-Bit Server VM
Default Encoding: UTF-8
Language: en
Country: US
--></g></svg>