<?xml version="1.0" encoding="UTF-8" standalone="no"?>
<svg
   xmlns:dc="http://purl.org/dc/elements/1.1/"
   xmlns:cc="http://creativecommons.org/ns#"
   xmlns:rdf="http://www.w3.org/1999/02/22-rdf-syntax-ns#"
   xmlns:svg="http://www.w3.org/2000/svg"
   xmlns="http://www.w3.org/2000/svg"
   xmlns:sodipodi="http://sodipodi.sourceforge.net/DTD/sodipodi-0.dtd"
   xmlns:inkscape="http://www.inkscape.org/namespaces/inkscape"
   inkscape:version="1.0 (4035a4f, 2020-05-01)"
   sodipodi:docname="DPR-DomainModelMiniTutorial_ContextMap.svg"
   id="svg60"
   version="1.1"
   viewBox="0 0 391.445 233.149"
   height="233.149"
   width="391.44501">
  <metadata
     id="metadata66">
    <rdf:RDF>
      <cc:Work
         rdf:about="">
        <dc:format>image/svg+xml</dc:format>
        <dc:type
           rdf:resource="http://purl.org/dc/dcmitype/StillImage" />
        <dc:title></dc:title>
      </cc:Work>
    </rdf:RDF>
  </metadata>
  <defs
     id="defs64" />
  <sodipodi:namedview
     inkscape:current-layer="svg60"
     inkscape:window-maximized="1"
     inkscape:window-y="23"
     inkscape:window-x="1680"
     inkscape:cy="-3"
     inkscape:cx="1000"
     inkscape:zoom="1"
     fit-margin-bottom="0"
     fit-margin-right="0"
     fit-margin-left="0"
     fit-margin-top="0"
     scale-x="0.5"
     showgrid="false"
     id="namedview62"
     inkscape:window-height="1324"
     inkscape:window-width="2560"
     inkscape:pageshadow="2"
     inkscape:pageopacity="0"
     guidetolerance="10"
     gridtolerance="10"
     objecttolerance="10"
     borderopacity="1"
     bordercolor="#666666"
     pagecolor="#ffffff" />
  <g
     transform="translate(4,229.149)"
     class="graph"
     id="graph0">
    <title
       id="title10">ContextMapGraph</title>
    <polygon
       id="polygon12"
       points="387.445,4 -4,4 -4,-229.149 387.445,-229.149 "
       stroke="none"
       fill="#ffffff" />
    <!-- OnlineShopFeaturesBackend -->
    <g
       class="node"
       id="node1">
      <title
         id="title14">OnlineShopFeaturesBackend</title>
      <polygon
         id="polygon16"
         points="99.7971,-220.761 90.2525,-219.721 81.1124,-218.577 72.4096,-217.33 64.1745,-215.984 56.4346,-214.544 49.2142,-213.012 42.5348,-211.393 36.4149,-209.692 30.8693,-207.913 25.9102,-206.061 21.5462,-204.141 17.7828,-202.158 14.6225,-200.118 12.0648,-198.027 10.1059,-195.89 8.7397,-193.713 7.95704,-191.501 7.74647,-189.262 8.09415,-187.001 8.98412,-184.724 10.3985,-182.438 12.3178,-180.149 14.721,-177.863 17.5857,-175.586 20.8887,-173.325 24.606,-171.086 28.713,-168.874 33.1847,-166.697 37.9962,-164.56 43.1225,-162.469 48.539,-160.429 54.2217,-158.446 60.147,-156.526 66.2923,-154.674 72.6359,-152.895 79.1572,-151.194 85.8365,-149.575 92.6556,-148.043 99.5975,-146.603 106.646,-145.257 113.788,-144.01 121.009,-142.866 128.297,-141.826 135.642,-140.895 143.034,-140.075 150.465,-139.367 157.927,-138.775 165.414,-138.299 172.918,-137.941 180.435,-137.702 187.959,-137.582 195.486,-137.582 203.01,-137.702 210.527,-137.941 218.031,-138.299 225.518,-138.775 232.98,-139.367 240.411,-140.075 247.803,-140.895 255.148,-141.826 262.436,-142.866 269.657,-144.01 276.799,-145.257 283.848,-146.603 290.789,-148.043 297.609,-149.575 304.288,-151.194 310.809,-152.895 317.153,-154.674 323.298,-156.526 329.223,-158.446 334.906,-160.429 340.323,-162.469 345.449,-164.56 350.26,-166.697 354.732,-168.874 358.839,-171.086 362.556,-173.325 365.859,-175.586 368.724,-177.863 371.127,-180.149 373.047,-182.438 374.461,-184.724 375.351,-187.001 375.699,-189.262 375.488,-191.501 374.705,-193.713 373.339,-195.89 371.38,-198.027 368.823,-200.118 365.662,-202.158 361.899,-204.141 357.535,-206.061 352.576,-207.913 347.03,-209.692 340.91,-211.393 334.231,-213.012 327.011,-214.544 319.271,-215.984 311.035,-217.33 302.333,-218.577 293.193,-219.721 283.648,-220.761 273.734,-221.692 263.489,-222.512 252.953,-223.22 242.167,-223.812 231.174,-224.288 220.019,-224.646 208.747,-224.886 197.405,-225.005 186.04,-225.005 174.698,-224.886 163.426,-224.646 152.271,-224.288 141.278,-223.812 130.492,-223.22 119.956,-222.512 109.711,-221.692 "
         stroke-width="2"
         stroke="#000000"
         fill="none" />
      <text
         id="text18"
         font-size="16px"
         font-family="sans-serif"
         y="-177.494"
         x="191.72301"
         text-anchor="middle">OnlineShopFeaturesBackend</text>
    </g>
    <!-- OnlineShopFeaturesFrontend -->
    <g
       class="node"
       id="node2">
      <title
         id="title21">OnlineShopFeaturesFrontend</title>
      <polygon
         id="polygon23"
         points="311.249,-9.11387 320.077,-10.5682 328.426,-12.1092 336.267,-13.7322 343.57,-15.4326 350.311,-17.2054 356.469,-19.0457 362.025,-20.9483 366.964,-22.9081 371.273,-24.9196 374.944,-26.9776 377.973,-29.0767 380.357,-31.2113 382.097,-33.376 383.198,-35.5652 383.668,-37.7734 383.517,-39.995 382.758,-42.2246 381.407,-44.4567 379.482,-46.6857 377.003,-48.9062 373.993,-51.1129 370.476,-53.3002 366.476,-55.4631 362.021,-57.5962 357.138,-59.6943 351.856,-61.7524 346.204,-63.7655 340.21,-65.7286 333.904,-67.637 327.315,-69.4859 320.471,-71.2707 313.401,-72.987 306.132,-74.6304 298.69,-76.1966 291.1,-77.6817 283.387,-79.0816 275.573,-80.3926 267.68,-81.6111 259.728,-82.7337 251.735,-83.7573 243.718,-84.6786 235.693,-85.495 227.674,-86.2039 219.673,-86.8029 211.703,-87.2899 203.772,-87.663 195.891,-87.9207 188.066,-88.0616 180.306,-88.0847 172.616,-87.9893 165.002,-87.7751 157.469,-87.4417 150.022,-86.9896 142.666,-86.4192 135.406,-85.7313 128.245,-84.9274 121.19,-84.0088 114.247,-82.9775 107.421,-81.8357 100.719,-80.5862 94.1494,-79.2318 87.721,-77.7758 81.4433,-76.2219 75.3271,-74.5741 69.3844,-72.8366 63.628,-71.0141 58.0722,-69.1115 52.7322,-67.1339 47.6242,-65.087 42.7656,-62.9765 38.1745,-60.8083 33.8699,-58.5887 29.8716,-56.3241 26.1997,-54.0212 22.8749,-51.6866 19.918,-49.3274 17.3499,-46.9506 15.1913,-44.5632 13.4626,-42.1726 12.1834,-39.7858 11.3728,-37.4101 11.0486,-35.0527 11.2274,-32.7208 11.9246,-30.4214 13.1537,-28.1616 14.9262,-25.9482 17.2517,-23.7879 20.1376,-21.6873 23.5886,-19.6525 27.6071,-17.6899 32.1926,-15.8051 37.3417,-14.0039 43.0484,-12.2913 49.3033,-10.6726 56.0942,-9.15218 63.4057,-7.7345 71.2195,-6.42348 79.5142,-5.22272 88.2653,-4.13543 97.4456,-3.16445 107.025,-2.31223 116.971,-1.58082 127.248,-0.97187 137.819,-0.486641 148.645,-0.125997 159.683,0.109593 170.892,0.220048 182.226,0.205671 193.64,0.0671378 205.087,-0.194507 216.522,-0.577863 227.897,-1.08119 239.164,-1.7024 250.278,-2.4391 261.193,-3.28859 271.863,-4.24788 282.244,-5.3137 292.296,-6.48252 301.977,-7.75057 "
         stroke-width="2"
         stroke="#000000"
         fill="none" />
      <text
         id="text25"
         font-size="16px"
         font-family="sans-serif"
         y="-40.418999"
         x="191.72301"
         text-anchor="middle">OnlineShopFeaturesFrontend</text>
    </g>
    <!-- OnlineShopFeaturesBackend&#45;&#45;OnlineShopFeaturesFrontend -->
    <g
       class="edge"
       id="edge1">
      <title
         id="title28">OnlineShopFeaturesBackend--OnlineShopFeaturesFrontend</title>
      <path
         id="path30"
         d="m 191.723,-137.555 c 0,15.767 0,33.628 0,49.412"
         stroke-width="2"
         stroke="#000000"
         fill="none" />
      <text
         id="text32"
         font-size="12px"
         font-family="sans-serif"
         y="-109.838"
         x="267.22299"
         text-anchor="middle">                                       </text>
      <polygon
         id="polygon34"
         points="189.723,-78.143 174.723,-78.143 174.723,-97.143 189.723,-97.143 "
         stroke="none"
         fill="#ffffff" />
      <polyline
         id="polyline36"
         points="189.723,-78.143 189.723,-97.143 "
         stroke="#000000"
         fill="none" />
      <text
         id="text38"
         font-size="12px"
         font-family="sans-serif"
         y="-84.542999"
         x="177.72301"
         text-anchor="start">D</text>
      <polygon
         id="polygon40"
         points="209.723,-78.143 189.723,-78.143 189.723,-97.143 209.723,-97.143 "
         stroke="none"
         fill="#ffffff" />
      <polygon
         id="polygon42"
         points="209.723,-78.143 189.723,-78.143 189.723,-97.143 209.723,-97.143 "
         stroke="#000000"
         fill="none" />
      <text
         id="text44"
         font-size="12px"
         font-family="sans-serif"
         y="-84.542999"
         x="192.72301"
         text-anchor="start">CF</text>
      <polygon
         id="polygon46"
         points="189.723,-127.555 174.723,-127.555 174.723,-146.555 189.723,-146.555 "
         stroke="none"
         fill="#ffffff" />
      <polyline
         id="polyline48"
         points="189.723,-127.555 189.723,-146.555 "
         stroke="#000000"
         fill="none" />
      <text
         id="text50"
         font-size="12px"
         font-family="sans-serif"
         y="-133.955"
         x="177.72301"
         text-anchor="start">U</text>
      <polygon
         id="polygon52"
         points="208.723,-127.555 189.723,-127.555 189.723,-146.555 208.723,-146.555 "
         stroke="none"
         fill="#ffffff" />
      <polygon
         id="polygon54"
         points="208.723,-127.555 189.723,-127.555 189.723,-146.555 208.723,-146.555 "
         stroke="#000000"
         fill="none" />
      <text
         id="text56"
         font-size="12px"
         font-family="sans-serif"
         y="-133.955"
         x="192.72301"
         text-anchor="start">PL</text>
    </g>
  </g>
</svg>
